PathFileType	4	(X/Y/Z)	C:/Users/beibeiliu/ov580/test_trc/User3\sequence.18_training_dense_right.trc
DataRate	CameraRate	NumFrames	NumMarkers	Units	OrigDataRate	OrigDataStartFrame	OrigNumFrames
120	120	22	19	mm	120	229	261
Frame#	Time	ThumbCMC			ThumbMCP			ThumbIP			ThumbTip			IndexMCP			IndexPIP			IndexTip			MiddleMCP			MiddlePIP			MiddleTip			RingMCP			RingPIP			RingTip			PinkyMCP			PinkyPIP			PinkyTip			BackHand1			BackHand2			BackHand3	
		X0	Y0	Z0	X1	Y1	Z1	X2	Y2	Z2	X3	Y3	Z3	X4	Y4	Z4	X5	Y5	Z5	X6	Y6	Z6	X7	Y7	Z7	X8	Y8	Z8	X9	Y9	Z9	X10	Y10	Z10	X11	Y11	Z11	X12	Y12	Z12	X13	Y13	Z13	X14	Y14	Z14	X15	Y15	Z15	X16	Y16	Z16	X17	Y17	Z17	X18	Y18	Z18	
228	1.9	128.514	-22.0543	19.8505	109.993	-23.0283	1.55341	95.2815	-28.7075	-23.6334	79.0423	-29.6516	-40.335	117.656	-68.8523	-37.2493	91.0751	-81.473	-24.3123	104.235	-61.0398	3.78345	126.931	-87.8078	-32.9519	100.444	-95.4544	-14.748	117.511	-70.3497	11.8695	136.7	-96.9436	-24.6934	112.999	-109.008	-5.47933	119.853	-85.0132	18.5497	163.362	-107.176	-15.2415	156.69	-119.655	-29.1956	149.477	-135.146	-47.7574	177.147	-62.9294	1.74078	184.471	-51.278	27.84	160.66	-31.3046	5.43375	
229	1.90833	128.975	-19.1336	22.4132	109.934	-21.3727	4.01182	92.1117	-22.3405	-20.9627	76.5464	-23.9781	-34.7379	109.631	-67.6388	-35.345	83.2832	-77.35	-18.75	101.772	-59.9423	8.69994	115.973	-82.9873	-30.4142	91.609	-91.0531	-5.72497	114.051	-66.673	14.5094	123.78	-98.8922	-22.1596	102.515	-104.493	-0.015095	112.349	-85.4221	22.3379	152.315	-109.857	-15.5036	140.997	-121.703	-29.217	133.455	-139.301	-41.7745	171.118	-69.4953	-0.041997	182.16	-52.3002	29.0603	159.596	-31.7826	5.9767	
230	1.91667	132.418	-20.3808	20.2718	110.53	-19.4043	0.258555	92.076	-18.7018	-19.9033	76.0952	-20.4641	-38.3891	103.418	-63.0897	-33.3504	78.2035	-70.8455	-16.1778	92.5742	-53.121	9.09575	109.893	-84.0979	-25.893	82.6411	-82.6319	-2.77477	105.452	-62.084	17.4034	117.006	-94.5229	-16.8276	94.1591	-98.2258	5.97508	108.42	-74.8605	24.6519	141.389	-108.445	-11.6025	130.376	-124.236	-22.8313	119.29	-136.807	-31.703	168.041	-71.1128	5.36199	181.667	-58.0438	30.2833	158.327	-33.1634	7.36755	
231	1.925	134.251	-12.3582	20.0476	112.601	-10.8544	-1.34581	94.3108	-8.34552	-20.9059	78.5256	-12.1282	-37.3816	98.1087	-56.2595	-31.4905	71.4898	-56.803	-9.61359	93.4043	-46.3383	12.8137	101.685	-80.3975	-21.0111	77.2523	-74.1816	1.79684	103.333	-58.3702	21.2373	108.072	-90.6515	-11.8894	85.1824	-90.6299	6.94974	101.606	-72.4	29.7072	134.223	-108.161	-3.61637	117.681	-122.563	-16.9285	103.32	-131.923	-28.3952	161.726	-71.5836	5.98842	177.323	-61.2643	27.7677	159.181	-38.1299	6.03943	
232	1.93333	139.721	-11.6928	21.7239	117.13	-7.86625	1.27146	97.2652	-4.39049	-23.9432	80.2587	-1.07884	-38.1939	93.7315	-53.9753	-29.2863	70.2145	-49.2526	-8.60627	90.1218	-37.9807	13.4315	92.8729	-74.5757	-18.8826	71.9241	-66.2627	1.44611	105.593	-50.9016	23.1952	99.4036	-89.2538	-7.29452	78.1507	-78.2912	13.1096	97.0626	-60.0329	31.4003	123.434	-102.529	-2.22182	106.191	-115.244	-14.2964	91.1873	-123.459	-21.1428	155.353	-75.5313	6.84535	175.681	-62.8011	33.446	159.398	-33.8971	6.53831	
233	1.94167	144.188	-8.56898	19.064	123.264	0.199421	-2.6728	102.78	3.19686	-26.223	87.6071	10.4157	-37.7438	95.6774	-46.3983	-27.9705	67.9141	-38.4236	-8.27198	87.3507	-29.1436	12.2701	91.0699	-63.8727	-19.9546	68.8913	-53.4021	2.33	102.41	-40.5323	23.9521	94.8769	-80.651	-5.20288	73.4063	-72.8565	14.22	94.2873	-53.1197	35.4928	115.656	-97.5114	4.96553	95.8376	-110.25	-9.23241	80.3507	-118.946	-16.0997	153.816	-73.4217	11.9218	171.02	-63.5636	29.844	160.054	-39.1775	7.7049	
234	1.95	148.599	-5.53038	18.5872	128.046	2.19957	-5.01863	109.357	10.657	-27.7267	94.4937	14.9527	-41.0658	91.3252	-43.2258	-26.9119	68.1963	-30.7761	-8.44052	91.2471	-17.564	12.3607	89.7047	-59.0573	-16.1076	67.2112	-43.5098	2.7662	101.907	-34.0272	24.7916	91.4807	-72.4059	-4.04957	69.0653	-62.2097	14.7978	93.2085	-41.2386	34.9396	107.623	-93.8636	7.73933	91.2586	-98.02	-4.4041	73.0236	-106.06	-13.8964	149.097	-72.1816	11.3557	168.443	-63.0816	31.7631	158.838	-39.0474	7.35865	
235	1.95833	151.602	-3.67526	13.4939	136.035	8.08697	-5.89184	118.111	17.0128	-31.2111	106.134	26.1369	-44.1664	93.6694	-32.3023	-26.882	69.8477	-17.0884	-9.6223	88.7758	-13.4071	13.773	87.3438	-50.1284	-15.468	68.4818	-32.4038	7.20696	99.4344	-26.4544	25.7062	90.8715	-65.7381	-0.621214	67.7823	-53.3767	16.0517	89.4543	-35.6031	36.0129	104.614	-82.5703	9.33882	82.1192	-94.0023	-0.0336703	66.4811	-98.9734	-7.27388	147.587	-65.789	11.8025	166.93	-60.7815	32.4295	160.04	-37.3009	5.24935	
236	1.96667	157.297	-1.30341	12.5074	144.011	11.0989	-6.46765	126.147	17.8182	-32.4508	114.511	27.3727	-49.5637	95.1296	-28.9844	-26.1714	72.7748	-8.98583	-12.285	95.8747	-1.81125	12.1911	87.1104	-43.2951	-14.3009	68.9406	-23.3687	3.94309	104.301	-22.2716	26.6394	85.5722	-58.2294	0.241221	66.7394	-43.3876	16.7568	89.0637	-26.529	34.8457	98.6082	-76.8566	7.81698	79.8495	-81.0911	0.865948	59.0361	-87.9148	-9.73419	142.317	-67.0567	15.6682	166.619	-57.991	36.0321	159.086	-36.1915	5.89246	
237	1.975	162.684	-0.185417	10.5544	151.344	13.3265	-11.4704	136.783	20.8012	-35.0691	126.061	30.4091	-51.0678	98.8494	-24.4147	-27.6707	75.0808	-6.65965	-14.2396	98.8571	1.23878	13.105	85.4286	-36.524	-15.5065	71.9094	-15.6047	5.81759	106.798	-15.0901	25.2234	84.1094	-50.5371	-1.89363	68.5566	-32.4713	12.9708	91.3308	-20.4426	34.6027	96.9187	-70.8776	9.87126	75.5795	-76.7459	2.31405	56.272	-76.8878	-7.26822	143.111	-62.5035	11.6529	165.69	-57.5465	32.4758	163.777	-35.496	5.65093	
238	1.98333	168.529	-0.033599	13.2143	155.616	11.3078	-11.4157	147.048	24.2298	-37.9265	138.168	33.7195	-53.0232	101.108	-20.6185	-29.2678	81.0041	3.11848	-20.3106	101.644	8.32767	6.47235	89.5569	-31.8998	-18.01	75.6055	-10.0309	4.70594	106.55	-8.61297	22.2735	87.5491	-45.2921	-4.88092	69.7261	-26.8109	11.0536	98.3076	-14.5069	31.4244	95.1327	-67.2343	9.57744	78.6006	-67.39	-0.100644	58.6264	-71.4034	-11.8693	144.678	-60.0112	12.4259	164.175	-58.0845	36.5918	164.65	-34.5254	3.66005	
239	1.99167	170.956	0.897012	7.76065	161.955	10.4555	-12.1768	153.85	23.3873	-38.3521	145.105	32.4615	-59.5451	108.295	-14.4335	-34.9173	85.8955	6.05449	-23.6591	107.404	12.4143	2.78804	93.3801	-28.1508	-21.2053	76.9088	-6.73396	-3.19981	112.022	-3.02567	18.0768	87.0838	-41.3403	-7.85563	73.5311	-19.8395	8.3096	100.885	-10.6921	27.834	97.9541	-62.9183	8.80998	80.486	-62.0741	-3.2083	57.9713	-69.0696	-14.5571	141.489	-56.8639	9.82843	163.737	-55.5759	31.7714	167.536	-34.083	5.99943	
240	2	172.921	-2.14154	10.2713	167.971	12.198	-17.0348	159.415	21.3871	-39.7225	154.682	32.9517	-57.8807	109.196	-15.9218	-37.0833	90.1758	7.55127	-23.7349	111.05	13.1715	-2.20675	95.656	-26.7579	-24.4524	82.8251	-3.22055	-9.70557	117.909	-1.88998	14.3898	93.1323	-39.3884	-11.6237	78.4371	-16.1055	2.20776	101.313	-6.90532	20.2948	97.6554	-63.2407	2.06877	83.5787	-61.4982	-8.33307	63.8841	-64.6413	-18.9695	145.268	-59.3061	12.608	167.024	-59.1225	35.8456	169.656	-36.2112	3.2252	
241	2.00833	176.375	-3.21384	8.11105	170.173	10.6046	-18.9292	162.867	18.5007	-43.568	156.872	28.0425	-63.5527	117.202	-16.6009	-40.6556	95.911	5.45572	-32.2627	116.605	12.5969	-6.97843	102.615	-27.2173	-29.6258	88.2473	-2.23909	-15.5363	115.008	-4.89055	11.8342	97.3988	-40.8912	-17.0117	82.1464	-17.5012	-2.55982	105.808	-12.0349	17.5674	103.519	-62.2333	-0.96111	86.5613	-62.4705	-13.4056	65.9708	-67.2484	-27.8128	149.554	-60.342	9.02837	167.971	-56.6737	32.8358	172.012	-37.1107	1.63786	
242	2.01667	178.949	-4.42301	6.22921	171.916	6.17284	-17.7926	168.436	18.5879	-45.1863	161.599	25.4794	-61.1266	127.632	-18.621	-46.3666	102.482	3.20268	-38.1786	119.16	7.89272	-9.32557	109.155	-31.3625	-33.671	94.5299	-3.74606	-19.8521	118.598	-6.42215	7.23032	104.511	-44.8345	-20.588	87.3196	-20.3743	-10.3573	114.226	-16.7028	12.9386	109.19	-65.1172	-4.70615	90.3708	-66.9921	-21.276	74.7821	-70.2418	-37.5197	151.621	-59.7003	4.61179	170.46	-59.7047	32.8309	178.779	-36.8228	4.38266	
243	2.025	184.07	-4.04864	8.72847	177.169	5.56864	-18.295	171.743	13.1038	-46.7965	168.593	22.7847	-65.3093	128.489	-22.9419	-50.9407	109.328	-0.00741353	-43.2709	124.847	5.757	-14.2206	116.999	-36.783	-38.0709	96.9674	-11.8342	-27.2176	124.02	-9.78496	3.02986	109.953	-46.7374	-27.4426	93.2238	-24.6942	-17.9477	114.964	-17.6662	5.41813	115.769	-66.1266	-11.7475	99.135	-69.2116	-28.3691	84.3338	-71.5855	-40.7605	154.091	-66.305	3.92974	171.504	-60.8758	30.932	182.732	-38.9764	1.70813	
244	2.03333	185.605	-6.19826	8.15868	178.769	0.862861	-21.4357	175.711	9.09315	-51.8661	172.629	17.3885	-69.7782	136.474	-28.8032	-52.8999	114.859	-5.08297	-46.966	132.064	-0.480789	-17.0595	125.065	-39.7113	-45.0076	103.572	-17.0873	-32.6481	130.243	-14.948	-2.4471	114.487	-53.4543	-32.1507	95.4865	-32.5855	-22.693	121.01	-21.6602	1.84911	120.108	-73.1005	-14.8696	106.571	-74.5651	-32.6838	88.639	-79.4282	-50.3532	162.844	-67.3244	3.34866	173.674	-62.5009	31.3929	184.75	-41.7249	-1.71376	
245	2.04167	188.047	-9.54112	6.06237	182.667	-3.34649	-24.1871	180.529	3.15645	-49.8986	174.431	8.91142	-72.1842	146.894	-34.9227	-56.0782	124.398	-11.2914	-55.8761	136.161	-8.11293	-21.7046	128.969	-47.7781	-49.2384	110.294	-23.8166	-40.4197	132.133	-18.273	-8.65574	120.727	-60.911	-34.9663	102.882	-35.6517	-29.4754	119.273	-26.9148	-4.00378	123.768	-80.0283	-21.0026	113.273	-80.7197	-36.2791	99.9711	-85.3261	-54.9369	164.032	-71.6395	0.207012	177.62	-64.5631	31.5169	189.671	-43.4606	1.22958	
246	2.05	190.532	-12.2231	1.67392	185.687	-7.58935	-27.1565	181.722	-4.05781	-53.1493	176.268	-1.83657	-77.1753	153.774	-41.8321	-59.1353	128.977	-18.3571	-58.0706	138.612	-11.9067	-28.2727	135.948	-54.7858	-53.5201	115.159	-32.4058	-43.7558	140.464	-25.8618	-12.5578	131.928	-65.0928	-41.1049	107.087	-44.9711	-33.9821	123.021	-32.9753	-7.6932	133.209	-84.7246	-22.4517	123.435	-88.8514	-37.11	109.509	-96.6843	-60.1429	169.851	-78.3995	1.98784	180.221	-68.6374	31.5045	194.821	-46.1275	1.11221	
247	2.05833	190.971	-13.686	0.73366	186.562	-10.6786	-28.556	182.648	-8.64835	-56.3265	178.239	-6.37635	-78.2783	161.333	-46.66	-62.3194	133.673	-27.6455	-61.1887	145.204	-18.0488	-30.7778	145.404	-60.7127	-55.1799	121.543	-39.2649	-48.3273	141.412	-30.5451	-16.5248	134.231	-74.3056	-43.2809	112.603	-55.845	-36.1437	127.045	-39.0223	-10.5362	139.745	-95.158	-24.5095	131.164	-98.005	-41.4469	117.255	-107.184	-57.8947	175.954	-79.0756	4.91333	185.126	-68.0868	29.1568	198.752	-49.7407	-0.851276	
248	2.06667	187.446	-16.826	1.95725	183.327	-13.6361	-26.1272	179.784	-15.0965	-57.5463	173.088	-14.3261	-79.5595	164.266	-52.5369	-62.3923	135.89	-39.5813	-63.3824	141.412	-27.0851	-32.8274	147.335	-69.8507	-54.9873	124.94	-48.2703	-49.9948	141.657	-37.991	-16.4801	143.887	-80.321	-41.1933	119.16	-64.5343	-41.0421	129.872	-46.1455	-11.5186	148.819	-100.694	-22.2924	138.829	-107.121	-40.1357	126.13	-119.145	-59.7025	183.103	-82.2578	4.43651	188.905	-74.4052	33.5786	198.57	-51.6892	1.75216	
249	2.075	183.806	-21.0629	3.82816	178.497	-19.6226	-29.9305	172.943	-20.8914	-56.0003	164.899	-24.1319	-81.2875	163.625	-58.7643	-62.8765	135.648	-44.3909	-62.7709	139.695	-34.8653	-31.9009	150.724	-76.6128	-55.6565	125.582	-58.2409	-51.619	140.005	-46.2468	-13.8668	146.062	-87.3233	-43.7227	120.582	-73.678	-37.9259	129.988	-54.7439	-11.0649	157.049	-105.242	-25.155	146.318	-118.323	-37.542	136.889	-127.496	-60.6952	188.903	-82.7358	2.12102	192.706	-72.9123	33.4034	200.962	-54.6497	4.18856	
